<?xml version="1.0" encoding="utf-8"?>
<!-- Generator: Adobe Illustrator 16.0.0, SVG Export Plug-In . SVG Version: 6.00 Build 0)  -->
<!DOCTYPE svg PUBLIC "-//W3C//DTD SVG 1.1//EN" "http://www.w3.org/Graphics/SVG/1.1/DTD/svg11.dtd">
<svg version="1.1" id="Layer_1" xmlns="http://www.w3.org/2000/svg" xmlns:xlink="http://www.w3.org/1999/xlink" x="0px" y="0px"
	 width="239px" height="55px" viewBox="3 -1.5 239 55" enable-background="new 3 -1.5 239 55" xml:space="preserve">
<path fill="#333333" d="M63,10V8h-2V6h-4v2h-2V4h-2v2h-6V4h-2v4h-2V6h-4v2h-2v2h-2v6h2v-2h2v-2h8v2h2v-2h2v2h2v-2h8v2h2v2h2v-6H63z
	 M49,10h-2V8h2V10z M53,10h-2V8h2V10z"/>
<path fill="#FFEE4D" d="M208,9V7h2V5h2V3h-6v2h-4v2h-2v2h-2V7h-2V5h-4v2h-2v4h-2v2h8v2h4v2h6v-2h4v-2h2v-2h-6V9H208z M194,11h-2V9h2
	V11z"/>
<path fill="#FFEE4D" d="M238,21v-2h2v-2h2v-2h-6v2h-4v2h-2v2h-2v-2h-2v-2h-4v2h-2v4h-2v2h8v2h4v2h6v-2h4v-2h2v-2h-6v-2H238z M224,23
	h-2v-2h2V23z"/>
<path fill="#333333" d="M35,23v-2h-2v-2h-6v2h-2v-2h-2v2h-6v-2h-2v2h-2v-2H7v2H5v2H3v4h2v-2h10v2h2v2h2v-2h2v2h2v-2h2v-2h10v2h2v-4
	H35z M19,25h-2v-2h2V25z M23,25h-2v-2h2V25z"/>
<g>
	<polygon fill="#FFDB7C" points="95,23 94,23 92,23 90,23 88,23 88,24 90,24 90,25 90,26 92,26 93,26 94,26 95,26 96,26 96,24 
		98,24 98,23 96,23 	"/>
	<polygon fill="#FFDB7C" points="77,23 76,23 76,24 76,25 76,26 79,26 80,26 80,25 80,23 78,23 	"/>
	<polygon fill="#FFDB7C" points="118,25 118,26 119,26 122,26 122,23 118,23 	"/>
	<polygon fill="#FFDB7C" points="132,23 131,23 130,23 129,23 128,23 127,23 124,23 124,24 126,24 126,25 126,26 127,26 128,26 
		132,26 132,24 133,24 134,24 134,23 133,23 	"/>
	<polygon fill="#FFDB7C" points="142,23 142,26 143,26 146,26 146,25 146,24 146,23 144,23 	"/>
	<polygon fill="#FFDB7C" points="148,23 148,25 148,26 149,26 151,26 152,26 152,25 152,23 151,23 	"/>
	<polygon fill="#FFDB7C" points="160,23 160,26 162,26 163,26 164,26 164,24 164,23 162,23 	"/>
	<polygon fill="#FFDB7C" points="174,23 173,23 172,23 172,24 172,25 172,26 173,26 175,26 176,26 176,23 	"/>
	<polygon fill="#FFDB7C" points="101,23 100,23 100,24 100,25 100,26 104,26 104,23 103,23 	"/>
	<polygon fill="#FFDB7C" points="112,23 112,25 112,26 113,26 116,26 116,24 116,23 113,23 	"/>
	<polygon fill="#FFDB7C" points="136,23 136,24 136,26 137,26 138,26 140,26 140,25 140,24 140,23 137,23 	"/>
	<polygon fill="#FFDB7C" points="154,23 154,24 154,25 154,26 155,26 157,26 158,26 158,25 158,23 157,23 	"/>
	<polygon fill="#FFDB7C" points="168,23 167,23 166,23 166,24 166,26 167,26 168,26 169,26 170,26 170,25 170,23 169,23 	"/>
	<polygon fill="#FFDB7C" points="107,23 106,23 106,25 106,26 107,26 108,26 110,26 110,25 110,24 110,23 109,23 	"/>
</g>
<g>
	<polygon fill="#AC3332" points="82,11 82,10 81,10 80,10 80,11 81,11 	"/>
	<polygon fill="#AC3332" points="100,10 99,10 96,10 95,10 94,10 92,10 91,10 90,10 90,11 91,11 92,11 94,11 95,11 96,11 99,11 
		100,11 	"/>
	<polygon fill="#AC3332" points="109,11 110,11 110,10 109,10 106,10 105,10 104,10 104,11 105,11 106,11 	"/>
	<polygon fill="#AC3332" points="118,10 117,10 116,10 115,10 114,10 113,10 112,10 112,11 113,11 114,11 115,11 116,11 117,11 
		118,11 	"/>
	<polygon fill="#AC3332" points="160,11 160,10 159,10 158,10 158,11 159,11 	"/>
	<polygon fill="#AC3332" points="94,16 93,16 92,16 92,17 93,17 94,17 	"/>
	<rect x="128" y="16" fill="#AC3332" width="2" height="1"/>
	<polygon fill="#AC3332" points="84,18 84,19 85,19 86,19 86,18 85,18 	"/>
	<polygon fill="#AC3332" points="90,24 89,24 88,24 88,25 89,25 90,25 	"/>
	<polygon fill="#AC3332" points="78,26 77,26 76,26 76,27 77,27 78,27 79,27 80,27 80,26 79,26 	"/>
	<polygon fill="#AC3332" points="119,26 118,26 118,27 119,27 120,27 122,27 122,26 120,26 	"/>
	<polygon fill="#AC3332" points="129,26 127,26 126,26 126,27 127,27 129,27 130,27 132,27 132,26 130,26 	"/>
	<polygon fill="#AC3332" points="156,26 155,26 154,26 154,27 155,27 156,27 157,27 158,27 158,26 157,26 	"/>
	<polygon fill="#AC3332" points="172,10 171,10 170,10 170,11 171,11 172,11 	"/>
	<polygon fill="#AC3332" points="96,24 96,25 97,25 98,25 98,24 97,24 	"/>
	<polygon fill="#AC3332" points="113,26 112,26 112,27 113,27 114,27 116,27 116,26 114,26 	"/>
	<polygon fill="#AC3332" points="150,26 149,26 148,26 148,27 149,27 150,27 151,27 152,27 152,26 151,26 	"/>
	<polygon fill="#AC3332" points="148,10 147,10 146,10 146,11 147,11 148,11 	"/>
	<polygon fill="#AC3332" points="82,20 81,20 80,20 80,21 81,21 82,21 83,21 84,21 84,20 83,20 	"/>
	<polygon fill="#AC3332" points="112,22 111,22 110,22 110,23 111,23 112,23 	"/>
	<polygon fill="#AC3332" points="132,24 132,25 133,25 134,25 134,24 133,24 	"/>
	<polygon fill="#AC3332" points="162,26 161,26 160,26 160,27 161,27 162,27 163,27 164,27 164,26 163,26 	"/>
	<polygon fill="#AC3332" points="125,11 126,11 127,11 131,11 132,11 132,10 131,10 127,10 126,10 125,10 124,10 123,10 122,10 
		122,11 123,11 124,11 	"/>
	<rect x="140" y="10" fill="#AC3332" width="2" height="1"/>
	<rect x="110" y="16" fill="#AC3332" width="2" height="1"/>
	<polygon fill="#AC3332" points="160,20 159,20 158,20 158,21 159,21 160,21 	"/>
	<polygon fill="#AC3332" points="126,24 125,24 124,24 124,25 125,25 126,25 	"/>
	<polygon fill="#AC3332" points="92,26 90,26 90,27 92,27 94,27 96,27 96,26 94,26 	"/>
	<polygon fill="#AC3332" points="100,26 100,27 103,27 104,27 104,26 103,26 	"/>
	<rect x="106" y="26" fill="#AC3332" width="4" height="1"/>
	<polygon fill="#AC3332" points="136,26 136,27 138,27 140,27 140,26 138,26 	"/>
	<polygon fill="#AC3332" points="143,26 142,26 142,27 143,27 144,27 146,27 146,26 144,26 	"/>
	<polygon fill="#AC3332" points="168,26 167,26 166,26 166,27 167,27 168,27 169,27 170,27 170,26 169,26 	"/>
	<polygon fill="#AC3332" points="175,26 174,26 173,26 172,26 172,27 173,27 174,27 175,27 176,27 176,26 	"/>
</g>
<g>
	<polygon fill="#FFAD35" points="125,30 123,30 123,31 123,32 124,32 125,32 125,31 127,31 128,31 128,30 127,30 	"/>
	<polygon fill="#FFAD35" points="113,30 111,30 111,31 110,31 110,32 111,32 112,32 113,32 113,31 114,31 116,31 116,30 114,30 	"/>
	<polygon fill="#FFAD35" points="120,30 118,30 117,30 117,31 117,32 119,32 119,31 120,31 121,31 122,31 122,30 121,30 	"/>
	<polygon fill="#FFAD35" points="140,30 139,30 138,30 137,30 137,31 136,31 136,32 137,32 139,32 139,31 140,31 142,31 142,30 	"/>
	<polygon fill="#FFAD35" points="129,31 129,32 130,32 131,32 131,30 129,30 	"/>
	<polygon fill="#FFAD35" points="133,31 132,31 132,32 134,32 134,31 135,31 135,30 133,30 	"/>
</g>
<g>
	<polygon fill="#FFBE51" points="123,32 123,34 124,34 125,34 125,33 127,33 127,32 124,32 	"/>
	<polygon fill="#FFBE51" points="141,33 141,32 140,32 139,32 137,32 137,33 139,33 139,34 142,34 142,33 	"/>
	<polygon fill="#FFBE51" points="115,32 114,32 113,32 111,32 111,33 113,33 113,34 116,34 116,33 115,33 	"/>
	<polygon fill="#FFBE51" points="119,32 118,32 117,32 117,33 117,34 119,34 119,33 120,33 121,33 121,32 120,32 	"/>
	<polygon fill="#FFBE51" points="133,32 131,32 130,32 129,32 129,33 129,34 130,34 131,34 131,33 132,33 132,34 134,34 134,33 
		133,33 	"/>
</g>
<g>
	<polygon fill="#FFC860" points="119,34 117,34 117,35 119,35 120,35 122,35 122,34 120,34 	"/>
	<polygon fill="#FFC860" points="133,34 133,35 134,35 135,35 135,34 134,34 	"/>
	<polygon fill="#FFC860" points="112,34 111,34 110,34 110,35 111,35 112,35 113,35 115,35 115,34 113,34 	"/>
	<polygon fill="#FFC860" points="126,34 124,34 123,34 123,35 124,35 126,35 127,35 128,35 128,34 127,34 	"/>
	<rect x="129" y="34" fill="#FFC860" width="2" height="1"/>
	<polygon fill="#FFC860" points="140,34 137,34 136,34 136,35 137,35 140,35 141,35 141,34 	"/>
</g>
<g>
	<polygon fill="#B95757" points="126,31 125,31 125,32 126,32 127,32 128,32 128,31 127,31 	"/>
	<polygon fill="#B95757" points="141,31 140,31 139,31 139,32 140,32 141,32 142,32 142,31 	"/>
	<polygon fill="#B95757" points="127,34 127,33 126,33 125,33 125,34 126,34 	"/>
	<rect x="115" y="34" fill="#B95757" width="1" height="1"/>
	<rect x="141" y="34" fill="#B95757" width="1" height="1"/>
	<polygon fill="#B95757" points="113,35 112,35 111,35 110,35 110,36 111,36 112,36 113,36 114,36 115,36 115,35 114,35 	"/>
	<polygon fill="#B95757" points="124,35 123,35 123,36 124,36 126,36 128,36 128,35 126,35 	"/>
	<polygon fill="#B95757" points="114,31 113,31 113,32 114,32 115,32 116,32 116,31 115,31 	"/>
	<rect x="134" y="31" fill="#B95757" width="1" height="1"/>
	<rect x="133" y="32" fill="#B95757" width="1" height="1"/>
	<rect x="131" y="33" fill="#B95757" width="1" height="1"/>
	<rect x="137" y="33" fill="#B95757" width="2" height="1"/>
	<rect x="129" y="35" fill="#B95757" width="2" height="1"/>
	<polygon fill="#B95757" points="139,35 138,35 136,35 136,36 138,36 139,36 140,36 141,36 141,35 140,35 	"/>
	<polygon fill="#B95757" points="119,31 119,32 121,32 122,32 122,31 121,31 	"/>
	<rect x="110" y="32" fill="#B95757" width="1" height="1"/>
	<rect x="136" y="32" fill="#B95757" width="1" height="1"/>
	<rect x="111" y="33" fill="#B95757" width="2" height="1"/>
	<polygon fill="#B95757" points="121,34 121,33 120,33 119,33 119,34 120,34 	"/>
	<rect x="132" y="34" fill="#B95757" width="1" height="1"/>
	<polygon fill="#B95757" points="117,35 117,36 119,36 122,36 122,35 119,35 	"/>
	<rect x="133" y="35" fill="#B95757" width="2" height="1"/>
</g>
<path fill="#FFEE4D" d="M29,38v-2h-6v2h-2v-2h-4v2h-2v2h2v2h-2v2h2v2h2v2h2v2h2v-4h2v-2h2v-2h2v-2h2v-2H29z M27,40h-2v-2h2V40z"/>
<path fill="#056C97" d="M71,42h1v1h-1V42z"/>
<g>
	<polygon fill="#27D2FF" points="79,40 78,40 73,40 72,40 70,40 70,41 70,42 72,42 73,42 74,42 74,43 75,43 76,43 78,43 78,42 
		82,42 82,41 82,40 80,40 	"/>
	<polygon fill="#27D2FF" points="86,40 85,40 84,40 84,41 84,42 84,43 85,43 86,43 88,43 88,41 88,40 87,40 	"/>
	<polygon fill="#27D2FF" points="92,40 92,41 92,42 92,43 93,43 94,43 95,43 96,43 96,41 96,40 94,40 	"/>
	<polygon fill="#27D2FF" points="105,40 104,40 103,40 102,40 99,40 98,40 98,41 98,43 99,43 100,43 101,43 102,43 102,42 104,42 
		105,42 108,42 108,41 108,40 106,40 	"/>
	<polygon fill="#27D2FF" points="124,40 123,40 122,40 120,40 118,40 118,41 118,42 120,42 121,42 122,42 122,43 123,43 126,43 
		126,42 128,42 129,42 130,42 130,41 130,40 126,40 	"/>
	<polygon fill="#27D2FF" points="183,40 182,40 179,40 175,40 174,40 174,41 174,43 176,43 177,43 178,43 178,42 181,42 184,42 
		184,41 184,40 	"/>
	<polygon fill="#27D2FF" points="142,41 142,40 141,40 140,40 139,40 138,40 136,40 135,40 134,40 132,40 132,41 132,43 134,43 
		135,43 136,43 136,42 140,42 140,43 144,43 144,42 142,42 	"/>
	<polygon fill="#27D2FF" points="156,41 156,40 155,40 153,40 152,40 150,40 149,40 148,40 148,41 148,42 147,42 146,42 146,43 
		147,43 150,43 150,42 151,42 154,42 154,43 158,43 158,42 156,42 	"/>
	<polygon fill="#27D2FF" points="170,41 170,40 168,40 167,40 166,40 164,40 162,40 162,41 162,42 160,42 160,43 162,43 163,43 
		164,43 164,42 165,42 168,42 168,43 169,43 172,43 172,42 170,42 	"/>
</g>
<g>
	<polygon fill="#1DCAFF" points="168,43 168,45 170,45 171,45 172,45 172,43 170,43 	"/>
	<polygon fill="#1DCAFF" points="104,44 103,44 102,44 102,43 101,43 100,43 98,43 98,44 98,45 99,45 102,45 103,45 104,45 105,45 
		106,45 106,44 105,44 	"/>
	<polygon fill="#1DCAFF" points="94,43 93,43 92,43 92,44 88,44 88,43 87,43 86,43 85,43 84,43 84,44 84,45 85,45 86,45 87,45 
		88,45 92,45 96,45 96,43 95,43 	"/>
	<polygon fill="#1DCAFF" points="74,44 74,45 75,45 76,45 77,45 78,45 78,44 78,43 74,43 	"/>
	<polygon fill="#1DCAFF" points="122,43 122,44 122,45 123,45 125,45 126,45 126,43 123,43 	"/>
	<polygon fill="#1DCAFF" points="142,43 141,43 140,43 140,44 138,44 137,44 136,44 136,43 135,43 133,43 132,43 132,45 133,45 
		134,45 135,45 136,45 137,45 138,45 140,45 141,45 142,45 142,44 143,44 144,44 144,43 143,43 	"/>
	<polygon fill="#1DCAFF" points="146,43 146,44 146,45 147,45 150,45 150,44 150,43 149,43 	"/>
	<polygon fill="#1DCAFF" points="156,43 155,43 154,43 154,44 154,45 156,45 157,45 158,45 158,44 158,43 157,43 	"/>
	<polygon fill="#1DCAFF" points="160,43 160,44 160,45 163,45 164,45 164,44 164,43 163,43 	"/>
	<polygon fill="#1DCAFF" points="181,44 180,44 178,44 178,43 174,43 174,45 175,45 176,45 177,45 178,45 180,45 181,45 182,45 
		182,44 	"/>
</g>
<path fill="#FFC2AF" d="M59,33v4h-2v-2h-2v-2h2v-2h-2v-2h-6v2h-2v6h-2v2h-2v6h2v-4h2v4h2v6h8v-2h-2v-4h2v-4h2v-2h2v-6H59z M49,33h2
	v2h-2V33z M53,49h-2v-4h2V49z M55,39h-4v-2h4V39z"/>
<g>
	<polygon fill="#16C2FF" points="74,45 74,47 76,47 78,47 78,45 75,45 	"/>
	<polygon fill="#16C2FF" points="94,45 93,45 92,45 90,45 87,45 86,45 84,45 84,47 85,47 86,47 88,47 88,46 90,46 92,46 92,47 
		94,47 96,47 96,45 95,45 	"/>
	<polygon fill="#16C2FF" points="104,45 102,45 100,45 98,45 98,46 98,47 100,47 101,47 102,47 102,46 104,46 105,46 106,46 106,45 
		105,45 	"/>
	<polygon fill="#16C2FF" points="148,45 147,45 146,45 146,47 147,47 150,47 150,45 149,45 	"/>
	<polygon fill="#16C2FF" points="181,45 180,45 178,45 177,45 176,45 174,45 174,47 176,47 177,47 178,47 178,46 180,46 181,46 
		182,46 182,45 	"/>
	<polygon fill="#16C2FF" points="122,46 122,47 125,47 126,47 126,45 122,45 	"/>
	<polygon fill="#16C2FF" points="140,45 139,45 138,45 137,45 136,45 134,45 132,45 132,47 136,47 136,46 137,46 138,46 138,47 
		139,47 141,47 142,47 142,45 141,45 	"/>
	<polygon fill="#16C2FF" points="154,45 154,46 154,47 155,47 156,47 157,47 158,47 158,46 158,45 155,45 	"/>
	<polygon fill="#16C2FF" points="162,45 160,45 160,46 160,47 161,47 163,47 164,47 164,46 164,45 163,45 	"/>
	<polygon fill="#16C2FF" points="168,45 168,46 168,47 170,47 171,47 172,47 172,45 170,45 	"/>
</g>
<path fill="#C0C0C0" d="M216,35v-2h-6v2h-2v6h-4v-2h-2v-6h-2v2h-2v-2h-2v2h-2v2h2v2h-2v2h4v2h-2v2h2v2h4v2h-2v2h6v-2h2v-4h2v-6h2v-2
	h2v2h2v2h2v-6H216z M200,39h-2v-2h2V39z"/>
<path fill="#FFEE4D" d="M17,48h2v2h-2V48z"/>
<g>
	<polygon fill="#0FBBFF" points="132,47 132,48 132,49 135,49 136,49 136,47 134,47 	"/>
	<polygon fill="#0FBBFF" points="154,48 153,48 152,48 151,48 150,48 150,47 149,47 148,47 147,47 146,47 146,48 147,48 148,48 
		148,49 149,49 151,49 152,49 153,49 154,49 155,49 156,49 156,48 158,48 158,47 154,47 	"/>
	<polygon fill="#0FBBFF" points="142,48 142,47 140,47 139,47 138,47 138,48 139,48 140,48 140,49 141,49 142,49 143,49 144,49 
		144,48 143,48 	"/>
	<polygon fill="#0FBBFF" points="74,47 74,48 74,49 75,49 77,49 78,49 78,48 78,47 75,47 	"/>
	<polygon fill="#0FBBFF" points="86,47 85,47 84,47 84,48 84,49 86,49 87,49 88,49 88,47 87,47 	"/>
	<polygon fill="#0FBBFF" points="92,47 92,48 92,49 93,49 94,49 96,49 96,48 96,47 93,47 	"/>
	<polygon fill="#0FBBFF" points="177,47 176,47 175,47 174,47 174,48 174,49 175,49 176,49 177,49 178,49 178,47 	"/>
	<polygon fill="#0FBBFF" points="123,47 122,47 122,48 122,49 123,49 125,49 126,49 126,47 124,47 	"/>
	<polygon fill="#0FBBFF" points="170,47 169,47 168,47 168,48 167,48 166,48 164,48 164,47 163,47 160,47 160,48 162,48 162,49 
		163,49 164,49 166,49 167,49 168,49 169,49 170,49 170,48 171,48 172,48 172,47 171,47 	"/>
	<polygon fill="#0FBBFF" points="105,48 103,48 102,48 102,47 100,47 99,47 98,47 98,48 98,49 99,49 101,49 103,49 105,49 106,49 
		108,49 108,48 106,48 	"/>
</g>
<g>
	<polygon fill="#0AB6FF" points="76,49 74,49 74,50 76,50 77,50 78,50 78,49 77,49 	"/>
	<polygon fill="#0AB6FF" points="132,49 132,50 134,50 136,50 136,49 134,49 	"/>
	<polygon fill="#0AB6FF" points="140,49 140,50 142,50 144,50 144,49 142,49 	"/>
	<polygon fill="#0AB6FF" points="151,49 148,49 148,50 151,50 154,50 156,50 156,49 154,49 	"/>
	<polygon fill="#0AB6FF" points="86,49 85,49 84,49 84,50 85,50 86,50 87,50 88,50 88,49 87,49 	"/>
	<polygon fill="#0AB6FF" points="93,49 92,49 92,50 93,50 95,50 96,50 96,49 95,49 	"/>
	<polygon fill="#0AB6FF" points="105,49 104,49 103,49 102,49 101,49 100,49 99,49 98,49 98,50 99,50 100,50 101,50 102,50 103,50 
		104,50 105,50 107,50 108,50 108,49 107,49 	"/>
	<polygon fill="#0AB6FF" points="124,49 122,49 122,50 124,50 125,50 126,50 126,49 125,49 	"/>
	<polygon fill="#0AB6FF" points="166,49 164,49 163,49 162,49 162,50 163,50 164,50 166,50 168,50 170,50 170,49 168,49 	"/>
	<rect x="174" y="49" fill="#0AB6FF" width="4" height="1"/>
</g>
<g>
	<polygon fill="#056D98" points="183,42 178,42 178,43 183,43 184,43 184,42 	"/>
	<polygon fill="#056D98" points="74,42 73,42 72,42 72,43 73,43 74,43 	"/>
	<polygon fill="#056D98" points="139,43 140,43 140,42 139,42 138,42 136,42 136,43 138,43 	"/>
	<polygon fill="#056D98" points="180,46 178,46 178,47 180,47 181,47 182,47 182,46 181,46 	"/>
	<polygon fill="#056D98" points="148,48 147,48 146,48 146,49 147,49 148,49 	"/>
	<polygon fill="#056D98" points="156,48 156,49 157,49 158,49 158,48 157,48 	"/>
	<polygon fill="#056D98" points="162,48 161,48 160,48 160,49 161,49 162,49 	"/>
	<polygon fill="#056D98" points="92,50 92,51 94,51 96,51 96,50 94,50 	"/>
	<polygon fill="#056D98" points="105,50 100,50 99,50 98,50 98,51 99,51 100,51 105,51 106,51 108,51 108,50 106,50 	"/>
	<polygon fill="#056D98" points="124,50 122,50 122,51 124,51 125,51 126,51 126,50 125,50 	"/>
	<polygon fill="#056D98" points="148,50 148,51 149,51 156,51 156,50 149,50 	"/>
	<polygon fill="#056D98" points="166,50 164,50 163,50 162,50 162,51 163,51 164,51 166,51 167,51 170,51 170,50 167,50 	"/>
	<rect x="70" y="42" fill="#056D98" width="1" height="1"/>
	<polygon fill="#056D98" points="78,42 78,43 81,43 82,43 82,42 81,42 	"/>
	<rect x="102" y="42" fill="#056D98" width="6" height="1"/>
	<polygon fill="#056D98" points="122,42 120,42 119,42 118,42 118,43 119,43 120,43 122,43 	"/>
	<polygon fill="#056D98" points="126,42 126,43 129,43 130,43 130,42 129,42 	"/>
	<rect x="150" y="42" fill="#056D98" width="4" height="1"/>
	<rect x="164" y="42" fill="#056D98" width="4" height="1"/>
	<rect x="142" y="44" fill="#056D98" width="2" height="1"/>
	<rect x="88" y="46" fill="#056D98" width="4" height="1"/>
	<polygon fill="#056D98" points="105,47 106,47 106,46 105,46 104,46 102,46 102,47 104,47 	"/>
	<rect x="136" y="46" fill="#056D98" width="2" height="1"/>
	<rect x="138" y="48" fill="#056D98" width="2" height="1"/>
	<rect x="170" y="48" fill="#056D98" width="2" height="1"/>
	<polygon fill="#056D98" points="74,50 74,51 77,51 78,51 78,50 77,50 	"/>
	<polygon fill="#056D98" points="84,50 84,51 87,51 88,51 88,50 87,50 	"/>
	<rect x="132" y="50" fill="#056D98" width="4" height="1"/>
	<rect x="140" y="50" fill="#056D98" width="4" height="1"/>
	<rect x="174" y="50" fill="#056D98" width="4" height="1"/>
</g>
<g>
	<polygon fill="#F87442" points="162,8 162,6 159,6 158,6 156,6 156,8 155,8 154,8 154,9 154,11 154,12 158,12 158,11 158,10 
		159,10 160,10 160,11 160,12 164,12 164,11 164,10 164,9 164,8 163,8 	"/>
	<polygon fill="#F87442" points="125,6 123,6 122,6 121,6 119,6 118,6 117,6 116,6 115,6 114,6 112,6 112,8 112,10 113,10 114,10 
		115,10 116,10 117,10 118,10 118,11 118,12 122,12 122,11 122,10 123,10 124,10 125,10 126,10 129,10 130,10 132,10 132,8 132,6 
		126,6 	"/>
	<polygon fill="#F87442" points="150,6 147,6 146,6 145,6 144,6 142,6 141,6 136,6 136,8 136,9 136,11 136,12 140,12 140,11 140,10 
		141,10 142,10 142,11 142,12 146,12 146,11 146,10 147,10 148,10 148,11 148,12 152,12 152,11 152,10 152,8 150,8 	"/>
	<polygon fill="#F87442" points="104,6 103,6 102,6 97,6 95,6 90,6 90,8 90,10 91,10 92,10 93,10 94,10 96,10 97,10 100,10 100,11 
		100,12 104,12 104,11 104,10 106,10 107,10 109,10 110,10 110,9 110,8 110,6 105,6 	"/>
	<polygon fill="#F87442" points="175,8 174,8 174,6 172,6 171,6 169,6 168,6 166,6 166,8 166,9 166,10 166,11 166,12 170,12 170,11 
		170,10 172,10 172,11 172,12 176,12 176,11 176,9 176,8 	"/>
	<polygon fill="#F87442" points="84,7 84,6 83,6 78,6 77,6 76,6 76,8 76,11 76,12 80,12 80,11 80,10 81,10 82,10 82,11 82,12 86,12 
		86,11 86,10 86,8 84,8 	"/>
</g>
<g>
	<polygon fill="#FC834C" points="138,11 137,11 136,11 136,12 136,14 136,15.042 140,15.042 140,14 140,13 140,12 140,11 139,11 	
		"/>
	<polygon fill="#FC834C" points="129,12 128,12 127,12 126,12 126,14 126,15.042 128,15.042 130,15.042 132,15.042 132,14 132,13 
		132,12 130,12 	"/>
	<polygon fill="#FC834C" points="102,11 100,11 100,13 100,14 100,15.042 104,15.042 104,14 104,13 104,11 103,11 	"/>
	<polygon fill="#FC834C" points="120,11 118,11 118,13 118,14 118,15.042 122,15.042 122,14 122,13 122,11 121,11 	"/>
	<polygon fill="#FC834C" points="143,11 142,11 142,13 142,14 142,15.042 146,15.042 146,14 146,12 146,11 144,11 	"/>
	<polygon fill="#FC834C" points="161,11 160,11 160,12 160,14 160,15.042 164,15.042 164,14 164,13 164,11 163,11 	"/>
	<polygon fill="#FC834C" points="175,11 173,11 172,11 172,13 172,14 172,15.042 176,15.042 176,14 176,12 176,11 	"/>
	<polygon fill="#FC834C" points="109,12 108,12 108,14 108,15.042 110,15.042 112,15.042 114,15.042 114,14 114,12 110,12 	"/>
	<polygon fill="#FC834C" points="78,11 76,11 76,13 76,14 76,15.042 80,15.042 80,14 80,13 80,11 79,11 	"/>
	<polygon fill="#FC834C" points="84,11 83,11 82,11 82,14 82,15.042 86,15.042 86,14 86,12 86,11 85,11 	"/>
	<polygon fill="#FC834C" points="149,11 148,11 148,12 148,13 148,14 148,15.042 152,15.042 152,14 152,13 152,12 152,11 150,11 	
		"/>
	<polygon fill="#FC834C" points="154,11 154,14 154,15.042 158,15.042 158,14 158,13 158,12 158,11 157,11 	"/>
	<polygon fill="#FC834C" points="166,11 166,14 166,15.042 170,15.042 170,14 170,13 170,12 170,11 169,11 	"/>
	<polygon fill="#FC834C" points="94,12 93,12 92,12 91,12 90,12 90,13 90,14 90,15.042 92,15.042 94,15.042 96,15.042 96,14 96,13 
		96,12 95,12 	"/>
</g>
<g>
	<polygon fill="#FF9A57" points="93,14 92,14 88,14 88,15 88,17 88,18 92,18 92,17 92,16 94,16 94,17 94,18 98,18 98,17 98,14 
		94,14 	"/>
	<polygon fill="#FF9A57" points="82,14 82,16 80,16 80,14 79,14 77,14 76,14 76,15 76,17 76,18 86,18 86,17 86,15 86,14 84,14 	"/>
	<polygon fill="#FF9A57" points="112,14 110,14 109,14 108,14 106,14 106,15 106,16 106,17 106,18 110,18 110,17 110,16 111,16 
		112,16 112,17 112,18 116,18 116,17 116,14 114,14 	"/>
	<polygon fill="#FF9A57" points="118,16 118,17 118,18 122,18 122,17 122,14 118,14 	"/>
	<polygon fill="#FF9A57" points="142,14 142,15 142,16 142,17 142,18 146,18 146,17 146,16 146,14 143,14 	"/>
	<polygon fill="#FF9A57" points="160,15 160,16 158,16 158,14 154,14 154,15 154,16 154,17 154,18 156,18 158,18 160,18 164,18 
		164,17 164,16 164,15 164,14 160,14 	"/>
	<polygon fill="#FF9A57" points="167,14 166,14 166,16 166,17 166,18 170,18 170,17 170,16 170,15 170,14 168,14 	"/>
	<polygon fill="#FF9A57" points="102,14 101,14 100,14 100,15 100,16 100,17 100,18 104,18 104,17 104,16 104,15 104,14 103,14 	"/>
	<polygon fill="#FF9A57" points="131,14 130,14 129,14 124,14 124,17 124,18 128,18 128,17 128,16 130,16 130,17 130,18 134,18 
		134,17 134,14 133,14 	"/>
	<polygon fill="#FF9A57" points="137,14 136,14 136,17 136,18 140,18 140,17 140,14 138,14 	"/>
	<polygon fill="#FF9A57" points="150,14 148,14 148,17 148,18 152,18 152,17 152,16 152,15 152,14 151,14 	"/>
	<polygon fill="#FF9A57" points="172,14 172,15 172,17 172,18 176,18 176,17 176,16 176,14 	"/>
</g>
<g>
	<polygon fill="#FFAF65" points="82,17 80,17 79,17 77,17 76,17 76,18 76,19 76,20 76,21 80,21 80,20 82,20 83,20 84,20 84,18 
		85,18 86,18 86,17 85,17 	"/>
	<polygon fill="#FFAF65" points="100,17 100,19 100,20 100,21 104,21 104,20 104,19 104,18 104,17 103,17 	"/>
	<polygon fill="#FFAF65" points="142,17 142,18 142,20 142,21 146,21 146,20 146,19 146,17 145,17 	"/>
	<polygon fill="#FFAF65" points="150,17 148,17 148,20 148,21 152,21 152,20 152,19 152,17 151,17 	"/>
	<polygon fill="#FFAF65" points="162,17 159,17 157,17 156,17 155,17 154,17 154,20 154,21 158,21 158,20 159,20 160,20 160,21 
		164,21 164,20 164,19 164,17 163,17 	"/>
	<polygon fill="#FFAF65" points="175,17 174,17 173,17 172,17 172,18 172,19 172,20 172,21 176,21 176,20 176,17 	"/>
	<polygon fill="#FFAF65" points="120,17 119,17 118,17 118,18 118,20 118,21 122,21 122,20 122,18 122,17 121,17 	"/>
	<polygon fill="#FFAF65" points="125,17 124,17 124,18 124,20 124,21 128,21 128,20 128,18 128,17 126,17 	"/>
	<polygon fill="#FFAF65" points="132,17 130,17 130,19 130,20 130,21 134,21 134,20 134,19 134,18 134,17 133,17 	"/>
	<polygon fill="#FFAF65" points="166,17 166,18 166,19 166,20 166,21 170,21 170,20 170,18 170,17 167,17 	"/>
	<polygon fill="#FFAF65" points="88,19 88,20 88,21 92,21 92,20 92,19 92,17 88,17 	"/>
	<polygon fill="#FFAF65" points="96,17 95,17 94,17 94,18 94,19 94,20 94,21 98,21 98,20 98,19 98,17 97,17 	"/>
	<polygon fill="#FFAF65" points="114,17 112,17 112,18 111,18 110,18 110,17 109,17 108,17 107,17 106,17 106,18 106,19 106,20 
		106,21 110,21 112,21 114,21 116,21 116,20 116,19 116,18 116,17 115,17 	"/>
	<polygon fill="#FFAF65" points="137,17 136,17 136,18 136,20 136,21 140,21 140,20 140,19 140,18 140,17 138,17 	"/>
</g>
<g>
	<polygon fill="#FFC771" points="94,22 93,22 92,22 92,20 88,20 88,21 88,22 88,23 90,23 91,23 93,23 95,23 96,23 98,23 98,22 
		98,21 98,20 94,20 	"/>
	<polygon fill="#FFC771" points="114,20 113,20 106,20 106,21 106,22 106,23 107,23 108,23 110,23 110,22 112,22 112,23 116,23 
		116,21 116,20 115,20 	"/>
	<polygon fill="#FFC771" points="131,20 130,20 124,20 124,23 134,23 134,22 134,20 133,20 	"/>
	<rect x="136" y="20" fill="#FFC771" width="4" height="3"/>
	<rect x="142" y="20" fill="#FFC771" width="4" height="3"/>
	<polygon fill="#FFC771" points="148,20 148,21 148,22 148,23 152,23 152,21 152,20 151,20 	"/>
	<polygon fill="#FFC771" points="154,23 158,23 158,22 158,21 158,20 154,20 	"/>
	<rect x="160" y="20" fill="#FFC771" width="4" height="3"/>
	<polygon fill="#FFC771" points="166,21 166,22 166,23 170,23 170,20 166,20 	"/>
	<polygon fill="#FFC771" points="78,20 76,20 76,23 77,23 78,23 80,23 80,20 79,20 	"/>
	<polygon fill="#FFC771" points="102,20 100,20 100,21 100,22 100,23 104,23 104,22 104,21 104,20 103,20 	"/>
	<polygon fill="#FFC771" points="118,20 118,21 118,23 122,23 122,20 119,20 	"/>
	<polygon fill="#FFC771" points="175,20 172,20 172,21 172,22 172,23 173,23 174,23 176,23 176,21 176,20 	"/>
</g>
</svg>
