<svg xmlns="http://www.w3.org/2000/svg" xmlns:xlink="http://www.w3.org/1999/xlink" version="1.1" id="Layer_1" x="0px" y="0px" width="531px" height="41px" viewBox="0 0 531 41" enable-background="new 0 0 531 41" xml:space="preserve" preserveAspectRatio="xMidYMin meet">
  <path fill="#23D2FF" d="M0 0h54v2H3v7H0V0z"/>
  <path fill="#23D2FF" d="M81 0h18v2H84v7h-3V0z"/>
  <path fill="#23D2FF" d="M123 0h33v2h-30v7h-3V0z"/>
  <path fill="#23D2FF" d="M165 0h33v2h-30v12h-9v-2h6V0z"/>
  <path fill="#23D2FF" d="M276 0h27v2h-24v4h-3V0z"/>
  <path fill="#23D2FF" d="M327 0h57v2h-54v10h-3V0z"/>
  <path fill="#23D2FF" d="M399 0h30v2h-27v6h-9v12h-9v19h-3V18h9V6h9V0z"/>
  <path fill="#23D2FF" d="M471 0h15v2h-12v6h-9v12h-9v19h-3V18h9V6h9V0z"/>
  <path fill="#23D2FF" d="M495 0h15v2h-12v6h-9V6h6V0z"/>
  <path fill="#FF00FF" d="M54 2h3v4h-3V2z"/>
  <path fill="#FFFFFF" d="M84 2h15v7H84V2z"/>
  <path fill="#FF00FF" d="M99 2h3v9H84V9h15V2z"/>
  <path fill="#FFFFFF" d="M126 2h30v10h3v2h9V2h30v7h-18v6h-9v9h3v2h6v4h3v2h15v7h-30V26h-3v-2h-9v15h-30v-7h18v-6h9v-9h-3v-2h-6v-4h-3V9h-15V2z"/>
  <path fill="#FF00FF" d="M156 2h3v10h-3V2z"/>
  <path fill="#FF00FF" d="M198 2h3v9h-18v6h-9v7h-3v-9h9V9h18V2z"/>
  <path fill="#FFFFFF" d="M279 2h24v31h3v2h15v4h-51v-4h18V8h-3V6h-6V2z"/>
  <path fill="#FF00FF" d="M303 2h3v31h-3V2z"/>
  <path fill="#FFFFFF" d="M330 2h54v10h-18v27h-36V29h21V14h-3v-2h-18V2z"/>
  <path fill="#FF00FF" d="M384 2h3v12h-18v27h-39v-2h36V12h18V2z"/>
  <path fill="#FF00FF" d="M429 2h3v4h-3V2z"/>
  <path fill="#FFFFFF" d="M474 2h12v4h3v2h9V2h12v4h3v2h6v10h3v2h6v19h-15V26h-3v-2h-9v9h-18v-7h-3v-2h-9v15h-15V20h9V8h9V2z"/>
  <path fill="#FF00FF" d="M486 2h3v4h-3V2z"/>
  <path fill="#FF00FF" d="M510 2h3v4h-3V2z"/>
  <path fill="#23D2FF" d="M213 3h42v2h-39v6h-9v19h-3V9h9V3z"/>
  <path fill="#FF00FF" d="M255 5h3v4h-3V5z"/>
  <path fill="#FFFFFF" d="M63 27V8h-6V6h-3V2H3v7h6v2h3v24H3v4h39v-4H30v-2h-3v-6H63zM30 11h15v10H30V11z"/>
  <path fill="#23D2FF" d="M57 6h6v2h-6V6z"/>
  <path fill="#FF00FF" d="M279 6h6v2h-6V6z"/>
  <path fill="#23D2FF" d="M432 6h6v2h-6V6z"/>
  <path fill="#23D2FF" d="M513 6h6v2h-6V6z"/>
  <path fill="#FF00FF" d="M63 8h3v21H30v4h-3v-6h36V8z"/>
  <path fill="#23D2FF" d="M285 8h3v27h-18v4h-3v-6h18V8z"/>
  <path fill="#FF00FF" d="M438 8h3v10h-3V8z"/>
  <path fill="#FF00FF" d="M519 8h3v10h-3V8z"/>
  <path fill="#FF00FF" d="M3 9h6v2H3V9z"/>
  <path fill="#FF00FF" d="M27 9h18v2H30v10h-3V9z"/>
  <path fill="#FFFFFF" d="M264 27V11h-6V9h-3V5h-39v6h-9v19h6v2h3v7h39v-4h-24v-2h-3v-6H264zM231 14h15v7h-15V14z"/>
  <path fill="#FF00FF" d="M126 9h15v2h-15V9z"/>
  <path fill="#23D2FF" d="M258 9h6v2h-6V9z"/>
  <path fill="#23D2FF" d="M9 11h3v24H3v4H0v-6h9V11z"/>
  <path fill="#FFFFFF" d="M441 20v-2h-3V8h-6V6h-3V2h-27v6h-9v12h-9v19h21v-9h18v2h3v7h21V20H441zM423 24h-15v-4h15V24z"/>
  <path fill="#23D2FF" d="M45 11h3v12H30v-2h15V11z"/>
  <path fill="#23D2FF" d="M141 11h3v4h-3V11z"/>
  <path fill="#FF00FF" d="M264 11h3v18h-36v4h-3v-6h36V11z"/>
  <path fill="#23D2FF" d="M72 12h27v2H75v4h-3V12z"/>
  <path fill="#FF00FF" d="M228 12h18v2h-15v7h-3V12z"/>
  <path fill="#FF00FF" d="M330 12h18v2h-18V12z"/>
  <path fill="#FFFFFF" d="M75 14h24v19h3v2h15v4H66v-4h18V20h-3v-2h-6V14z"/>
  <path fill="#FF00FF" d="M99 14h3v19h-3V14z"/>
  <path fill="#23D2FF" d="M246 14h3v9h-18v-2h15V14z"/>
  <path fill="#23D2FF" d="M348 14h3v15h-21v10h-3V27h21V14z"/>
  <path fill="#FF00FF" d="M144 15h6v2h-6V15z"/>
  <path fill="#23D2FF" d="M150 17h3v9h-9v6h-18v7h-3v-9h18v-6h9V17z"/>
  <path fill="#FF00FF" d="M75 18h6v2h-6V18z"/>
  <path fill="#FF00FF" d="M405 18h18v2h-15v4h-3V18z"/>
  <path fill="#23D2FF" d="M441 18h6v2h-6V18z"/>
  <path fill="#23D2FF" d="M522 18h6v2h-6V18z"/>
  <path fill="#23D2FF" d="M81 20h3v15H66v4h-3v-6h18V20z"/>
  <path fill="#23D2FF" d="M423 20h3v6h-18v-2h15V20z"/>
  <path fill="#FF00FF" d="M447 20h3v21h-24v-2h21V20z"/>
  <path fill="#FF00FF" d="M528 20h3v21h-18v-2h15V20z"/>
  <path fill="#FF00FF" d="M156 24h9v2h-6v15h-33v-2h30V24z"/>
  <path fill="#23D2FF" d="M174 24h6v2h-6V24z"/>
  <path fill="#FF00FF" d="M471 24h9v2h-6v15h-18v-2h15V24z"/>
  <path fill="#FF00FF" d="M501 24h9v2h-6v9h-21v-2h18V24z"/>
  <path fill="#23D2FF" d="M165 26h3v13h-3V26z"/>
  <path fill="#FF00FF" d="M180 26h3v4h-3V26z"/>
  <path fill="#23D2FF" d="M480 26h3v7h-3V26z"/>
  <path fill="#23D2FF" d="M510 26h3v13h-3V26z"/>
  <path fill="#23D2FF" d="M183 30h15v2h-15V30z"/>
  <path fill="#FF00FF" d="M207 30h6v2h-6V30z"/>
  <path fill="#FF00FF" d="M405 30h18v2h-15v9h-24v-2h21V30z"/>
  <path fill="#FF00FF" d="M198 32h3v9h-33v-2h30V32z"/>
  <path fill="#23D2FF" d="M213 32h3v7h-3V32z"/>
  <path fill="#23D2FF" d="M423 32h3v7h-3V32z"/>
  <path fill="#23D2FF" d="M30 33h12v2H30V33z"/>
  <path fill="#23D2FF" d="M102 33h15v2h-15V33z"/>
  <path fill="#23D2FF" d="M231 33h24v2h-24V33z"/>
  <path fill="#23D2FF" d="M306 33h15v2h-15V33z"/>
  <path fill="#FF00FF" d="M42 35h3v6H3v-2h39V35z"/>
  <path fill="#FF00FF" d="M117 35h3v6H66v-2h51V35z"/>
  <path fill="#FF00FF" d="M255 35h3v6h-42v-2h39V35z"/>
  <path fill="#FF00FF" d="M321 35h3v6h-54v-2h51V35z"/>
</svg>
