<svg xmlns="http://www.w3.org/2000/svg" width="12" height="7" viewBox="0 0 12 7">
    <path opacity=".9" fill="#4C014C" d="M7 0h1v1h1v1h2v1h-3v-1h-1v-2z"/>
    <path opacity=".9" fill="#015668" d="M8 0h1v1h-1v-1z"/>
    <path opacity=".9" fill="#830183" d="M9 0h2v1h-2v-1z"/>
    <path opacity=".9" fill="#6D016D" d="M11 0h1v1h-1v-1z"/>
    <path opacity=".9" fill="#01303C" d="M6 1h1v1h-1v-1z"/>
    <path opacity=".9" fill="#013F4C" d="M9 1h1v1h-1v-1z"/>
    <path opacity=".9" fill="#013845" d="M10 1h1v1h-1v-1z"/>
    <path opacity=".9" fill="#011F29" d="M11 1h1v1h-1v-1z"/>
    <path opacity=".9" fill="#730173" d="M3 2h1v3h2v2h-2v-1h-1v-4z"/>
    <path opacity=".9" fill="#015F74" d="M4 2h2v3h-2v-3z"/>
    <path opacity=".9" fill="#01596E" d="M6 2h1v3h-1v-3z"/>
    <path opacity=".9" fill="#01333F" d="M7 2h1v2h-1v-2z"/>
    <path opacity=".9" fill="#410141" d="M11 2h1v1h-1v-1z"/>
    <path opacity=".9" fill="#013845" d="M2 3h1v4h-2v-3h1v-1zM8 3h3v1h-3v-1z"/>
    <path opacity=".9" fill="#012933" d="M11 3h1v1h-1v-1z"/>
    <path opacity=".9" fill="#8F018F" d="M0 4h1v3h-1v-3z"/>
    <path opacity=".9" fill="#7D017D" d="M7 4h1v3h-1v-3z"/>
    <path opacity=".9" fill="#014C5D" d="M8 4h1v3h-1v-3z"/>
    <path opacity=".9" fill="#8D018D" d="M9 4h2v2h-2v-2z"/>
    <path opacity=".9" fill="#015769" d="M11 4h1v3h-1v-3z"/>
    <path opacity=".9" fill="#013A49" d="M6 5h1v2h-1v-2z"/>
    <path opacity=".9" fill="#015F74" d="M3 6h1v1h-1v-1z"/>
    <path opacity=".9" fill="#014E61" d="M9 6h2v1h-2v-1z"/>
</svg>
