<svg xmlns="http://www.w3.org/2000/svg" width="239" height="55" viewBox="0 0 239 55">
    <path fill="#333" d="M60 10v-2h-2v-2h-4v2h-2v-4h-2v2h-6v-2h-2v4h-2v-2h-4v2h-2v2h-2v6h2v-2h2v-2h8v2h2v-2h2v2h2v-2h8v2h2v2h2v-6h-2zm-14 0h-2v-2h2v2zm4 0h-2v-2h2v2z"/>
    <path fill="#FFEE4D" d="M205 9v-2h2v-2h2v-2h-6v2h-4v2h-2v2h-2v-2h-2v-2h-4v2h-2v4h-2v2h8v2h4v2h6v-2h4v-2h2v-2h-6v-2h2zm-14 2h-2v-2h2v2zm44 10v-2h2v-2h2v-2h-6v2h-4v2h-2v2h-2v-2h-2v-2h-4v2h-2v4h-2v2h8v2h4v2h6v-2h4v-2h2v-2h-6v-2h2zm-14 2h-2v-2h2v2z"/>
    <path fill="#333" d="M32 23v-2h-2v-2h-6v2h-2v-2h-2v2h-6v-2h-2v2h-2v-2h-6v2h-2v2h-2v4h2v-2h10v2h2v2h2v-2h2v2h2v-2h2v-2h10v2h2v-4h-2zm-16 2h-2v-2h2v2zm4 0h-2v-2h2v2z"/>
    <path fill="#FFDB7C" d="M92 23h-7v1h2v2h6v-2h2v-1h-3zm-18 0h-1v3h4v-3h-3zm41 2v1h4v-3h-4v2zm14-2h-8v1h2v2h6v-2h2v-1h-2zm10 0v3h4v-3h-4zm6 0v3h4v-3h-4zm12 0v3h4v-3h-4zm14 0h-2v3h4v-3h-2zm-73 0h-1v3h4v-3h-3zm11 0v3h4v-3h-4zm24 0v3h4v-3h-4zm18 0v3h4v-3h-4zm14 0h-2v3h4v-3h-2zm-61 0h-1v3h4v-3h-3z"/>
    <path fill="#AC3332" d="M79 11v-1h-2v1h2zm18-1h-10v1h10v-1zm9 1h1v-1h-6v1h5zm9-1h-6v1h6v-1zm42 1v-1h-2v1h2zm-66 5h-2v1h2v-1zm34 0h2v1h-2v-1zm-44 2v1h2v-1h-2zm6 6h-2v1h2v-1zm-12 2h-2v1h4v-1h-2zm41 0h-1v1h4v-1h-3zm10 0h-3v1h6v-1h-3zm27 0h-2v1h4v-1h-2zm16-16h-2v1h2v-1zm-76 14v1h2v-1h-2zm17 2h-1v1h4v-1h-3zm37 0h-2v1h4v-1h-2zm-2-16h-2v1h2v-1zm-66 10h-2v1h4v-1h-2zm30 2h-2v1h2v-1zm20 2v1h2v-1h-2zm30 2h-2v1h4v-1h-2zm-37-15h7v-1h-10v1h3zm15-1h2v1h-2v-1zm-30 6h2v1h-2v-1zm50 4h-2v1h2v-1zm-34 4h-2v1h2v-1zm-34 2h-2v1h6v-1h-4zm8 0v1h4v-1h-4zm6 0h4v1h-4v-1zm30 0v1h4v-1h-4zm7 0h-1v1h4v-1h-3zm25 0h-2v1h4v-1h-2zm7 0h-3v1h4v-1h-1z"/>
    <path fill="#FFAD35" d="M122 30h-2v2h2v-1h3v-1h-3zm-12 0h-2v1h-1v1h3v-1h3v-1h-3zm7 0h-3v2h2v-1h3v-1h-2zm20 0h-3v1h-1v1h3v-1h3v-1h-2zm-11 1v1h2v-2h-2v1zm4 0h-1v1h2v-1h1v-1h-2v1z"/>
    <path fill="#FFBE51" d="M120 32v2h2v-1h2v-1h-4zm18 1v-1h-4v1h2v1h3v-1h-1zm-26-1h-4v1h2v1h3v-1h-1v-1zm4 0h-2v2h2v-1h2v-1h-2zm14 0h-4v2h2v-1h1v1h2v-1h-1v-1z"/>
    <path fill="#FFC860" d="M116 34h-2v1h5v-1h-3zm14 0v1h2v-1h-2zm-21 0h-2v1h5v-1h-3zm14 0h-3v1h5v-1h-2zm3 0h2v1h-2v-1zm11 0h-4v1h5v-1h-1z"/>
    <path fill="#B95757" d="M123 31h-1v1h3v-1h-2zm15 0h-2v1h3v-1h-1zm-14 3v-1h-2v1h2zm-12 0h1v1h-1v-1zm26 0h1v1h-1v-1zm-28 1h-3v1h5v-1h-2zm11 0h-1v1h5v-1h-4zm-10-4h-1v1h3v-1h-2zm20 0h1v1h-1v-1zm-1 1h1v1h-1v-1zm-2 1h1v1h-1v-1zm6 0h2v1h-2v-1zm-8 2h2v1h-2v-1zm10 0h-3v1h5v-1h-2zm-20-4v1h3v-1h-3zm-9 1h1v1h-1v-1zm26 0h1v1h-1v-1zm-25 1h2v1h-2v-1zm10 1v-1h-2v1h2zm11 0h1v1h-1v-1zm-15 1v1h5v-1h-5zm16 0h2v1h-2v-1z"/>
    <path fill="#FFEE4D" d="M26 38v-2h-6v2h-2v-2h-4v2h-2v2h2v2h-2v2h2v2h2v2h2v2h2v-4h2v-2h2v-2h2v-2h2v-2h-2zm-2 2h-2v-2h2v2z"/>
    <path fill="#056C97" d="M68 42h1v1h-1v-1z"/>
    <path fill="#27D2FF" d="M76 40h-9v2h4v1h4v-1h4v-2h-3zm7 0h-2v3h4v-3h-2zm6 0v3h4v-3h-4zm13 0h-7v3h4v-1h6v-2h-3zm19 0h-6v2h4v1h4v-1h4v-2h-6zm59 0h-9v3h4v-1h6v-2h-1zm-41 1v-1h-10v3h4v-1h4v1h4v-1h-2v-1zm14 0v-1h-8v2h-2v1h4v-1h4v1h4v-1h-2v-1zm14 0v-1h-8v2h-2v1h4v-1h4v1h4v-1h-2v-1z"/>
    <path fill="#1DCAFF" d="M165 43v2h4v-2h-4zm-64 1h-2v-1h-4v2h8v-1h-2zm-10-1h-2v1h-4v-1h-4v2h12v-2h-2zm-20 1v1h4v-2h-4v1zm48-1v2h4v-2h-4zm20 0h-2v1h-4v-1h-4v2h10v-1h2v-1h-2zm4 0v2h4v-2h-4zm10 0h-2v2h4v-2h-2zm4 0v2h4v-2h-4zm21 1h-3v-1h-4v2h8v-1h-1z"/>
    <path fill="#FFC2AF" d="M56 33v4h-2v-2h-2v-2h2v-2h-2v-2h-6v2h-2v6h-2v2h-2v6h2v-4h2v4h2v6h8v-2h-2v-4h2v-4h2v-2h2v-6h-2zm-10 0h2v2h-2v-2zm4 16h-2v-4h2v4zm2-10h-4v-2h4v2z"/>
    <path fill="#16C2FF" d="M71 45v2h4v-2h-4zm20 0h-10v2h4v-1h4v1h4v-2h-2zm10 0h-6v2h4v-1h4v-1h-2zm44 0h-2v2h4v-2h-2zm33 0h-7v2h4v-1h4v-1h-1zm-59 1v1h4v-2h-4v1zm18-1h-8v2h4v-1h2v1h4v-2h-2zm14 0v2h4v-2h-4zm8 0h-2v2h4v-2h-2zm6 0v2h4v-2h-4z"/>
    <path fill="none" d="M193 45h2v2h-2zM195 37h2v2h-2z"/>
    <g fill="#C0C0C0">
        <path d="M193 47h2v2h-2zM213 35v-2h-6v2h-2v6h-4v-2h-2v-6h-2v2h-2v-2h-2v2h-2v2h2v2h-2v2h4v2h-2v2h2v2h4v2h-2v2h6v-2h2v-4h2v-6h2v-2h2v2h2v2h2v-6h-2zm-16 4h-2v-2h2v2zM191 45h2v2h-2z"/>
    </g>
    <path fill="#FFEE4D" d="M14 48h2v2h-2v-2z"/>
    <path fill="#0FBBFF" d="M129 47v2h4v-2h-4zm22 1h-4v-1h-4v1h2v1h8v-1h2v-1h-4v1zm-12 0v-1h-4v1h2v1h4v-1h-2zm-68-1v2h4v-2h-4zm12 0h-2v2h4v-2h-2zm6 0v2h4v-2h-4zm85 0h-3v2h4v-2h-1zm-54 0h-1v2h4v-2h-3zm47 0h-2v1h-4v-1h-4v1h2v1h8v-1h2v-1h-2zm-65 1h-3v-1h-4v2h10v-1h-3z"/>
    <path fill="#0AB6FF" d="M73 49h-2v1h4v-1h-2zm56 0v1h4v-1h-4zm8 0v1h4v-1h-4zm11 0h-3v1h8v-1h-5zm-65 0h-2v1h4v-1h-2zm7 0h-1v1h4v-1h-3zm12 0h-7v1h10v-1h-3zm19 0h-2v1h4v-1h-2zm42 0h-4v1h8v-1h-4zm8 0h4v1h-4v-1z"/>
    <path fill="#056D98" d="M180 42h-5v1h6v-1h-1zm-109 0h-2v1h2v-1zm65 1h1v-1h-4v1h3zm41 3h-2v1h4v-1h-2zm-32 2h-2v1h2v-1zm8 0v1h2v-1h-2zm6 0h-2v1h2v-1zm-70 2v1h4v-1h-4zm13 0h-7v1h10v-1h-3zm19 0h-2v1h4v-1h-2zm24 0v1h8v-1h-8zm18 0h-4v1h8v-1h-4zm-96-8h1v1h-1v-1zm8 0v1h4v-1h-4zm24 0h6v1h-6v-1zm20 0h-4v1h4v-1zm4 0v1h4v-1h-4zm24 0h4v1h-4v-1zm14 0h4v1h-4v-1zm-22 2h2v1h-2v-1zm-54 2h4v1h-4v-1zm17 1h1v-1h-4v1h3zm31-1h2v1h-2v-1zm2 2h2v1h-2v-1zm32 0h2v1h-2v-1zm-96 2v1h4v-1h-4zm10 0v1h4v-1h-4zm48 0h4v1h-4v-1zm8 0h4v1h-4v-1zm34 0h4v1h-4v-1z"/>
    <path fill="#F87442" d="M159 8v-2h-6v2h-2v4h4v-2h2v2h4v-4h-2zm-37-2h-13v4h6v2h4v-2h10v-4h-7zm25 0h-14v6h4v-2h2v2h4v-2h2v2h4v-4h-2v-2zm-46 0h-14v4h10v2h4v-2h6v-4h-6zm71 2h-1v-2h-8v6h4v-2h2v2h4v-4h-1zm-91-1v-1h-8v6h4v-2h2v2h4v-4h-2v-1z"/>
    <path fill="#FC834C" d="M135 11h-2v4.042h4v-4.042h-2zm-9 1h-3v3.042h6v-3.042h-3zm-27-1h-2v4.042h4v-4.042h-2zm18 0h-2v4.042h4v-4.042h-2zm23 0h-1v4.042h4v-4.042h-3zm18 0h-1v4.042h4v-4.042h-3zm14 0h-3v4.042h4v-4.042h-1zm-66 1h-1v3.042h6v-3.042h-5zm-31-1h-2v4.042h4v-4.042h-2zm6 0h-2v4.042h4v-4.042h-2zm65 0h-1v4.042h4v-4.042h-3zm5 0v4.042h4v-4.042h-4zm12 0v4.042h4v-4.042h-4zm-72 1h-4v3.042h6v-3.042h-2z"/>
    <path fill="#FF9A57" d="M90 14h-5v4h4v-2h2v2h4v-4h-5zm-11 0v2h-2v-2h-4v4h10v-4h-4zm30 0h-6v4h4v-2h2v2h4v-4h-4zm6 2v2h4v-4h-4v2zm24-2v4h4v-4h-4zm18 1v1h-2v-2h-4v4h10v-4h-4v1zm7-1h-1v4h4v-4h-3zm-65 0h-2v4h4v-4h-2zm29 0h-7v4h4v-2h2v2h4v-4h-3zm6 0h-1v4h4v-4h-3zm13 0h-2v4h4v-4h-2zm22 0v4h4v-4h-4z"/>
    <path fill="#FFAF65" d="M79 17h-6v4h4v-1h4v-2h2v-1h-4zm18 0v4h4v-4h-4zm42 0v4h4v-4h-4zm8 0h-2v4h4v-4h-2zm12 0h-8v4h4v-1h2v1h4v-4h-2zm13 0h-3v4h4v-4h-1zm-55 0h-2v4h4v-4h-2zm5 0h-1v4h4v-4h-3zm7 0h-2v4h4v-4h-2zm34 0v4h4v-4h-4zm-78 2v2h4v-4h-4v2zm8-2h-2v4h4v-4h-2zm18 0h-2v1h-2v-1h-4v4h10v-4h-2zm23 0h-1v4h4v-4h-3z"/>
    <path fill="#FFC771" d="M91 22h-2v-2h-4v3h10v-3h-4v2zm20-2h-8v3h4v-1h2v1h4v-3h-2zm17 0h-7v3h10v-3h-3zm5 0h4v3h-4v-3zm6 0h4v3h-4v-3zm6 0v3h4v-3h-4zm6 3h4v-3h-4v3zm6-3h4v3h-4v-3zm6 1v2h4v-3h-4v1zm-88-1h-2v3h4v-3h-2zm24 0h-2v3h4v-3h-2zm16 0v3h4v-3h-4zm57 0h-3v3h4v-3h-1z"/>
</svg>
